HIERARCHY
ROOT pelvis
{
  OFFSET 0 100 0
  CHANNELS 6 Xposition Yposition Zposition Zrotation Xrotation Yrotation
  JOINT pelvis_right_femur
  {
    OFFSET -10.78128 -3.44521 -0.5502486
    CHANNELS 3 Zrotation Xrotation Yrotation
    JOINT right_femur_tibia
    {
      OFFSET -0.8047443 -44.0398 -0.1307829
      CHANNELS 3 Zrotation Xrotation Yrotation
      JOINT right_tibia_foot
      {
        OFFSET 3.006224 -47.83518 -5
        CHANNELS 3 Zrotation Xrotation Yrotation
        End Site
        {
          OFFSET 0 -5 15
        }
      }
    }
  }
  JOINT pelvis_left_femur
  {
    OFFSET 10.78128 -3.44521 -0.5502486
    CHANNELS 3 Zrotation Xrotation Yrotation
    JOINT left_femur_tibia
    {
      OFFSET 0.8047443 -44.0398 -0.1307829
      CHANNELS 3 Zrotation Xrotation Yrotation
      JOINT left_tibia_foot
      {
        OFFSET -4.370144 -48.10324 -4.275266
        CHANNELS 3 Zrotation Xrotation Yrotation
        End Site
        {
          OFFSET 0 -5 15
        }
      }
    }
  }
  JOINT pelvis_spine1
  {
    OFFSET 0 6.468898 -3.129235
    CHANNELS 3 Zrotation Xrotation Yrotation
    JOINT spine1
    {
      OFFSET 0 23.15396 4.99043
      CHANNELS 3 Zrotation Xrotation Yrotation
      JOINT spine2
      {
        OFFSET 0 20.79997 -5.064912
        CHANNELS 3 Zrotation Xrotation Yrotation
        JOINT neck
        {
          OFFSET 0 14.38658 9.616178
          CHANNELS 3 Zrotation Xrotation Yrotation
          End Site
          {
            OFFSET 0 20 0
          }
        }
      }
      JOINT right_manubrium
      {
        OFFSET -5.722621 16.35077 3.967754
        CHANNELS 3 Zrotation Xrotation Yrotation
        JOINT right_clavicle
        {
          OFFSET -13.16364 1.694482 -4.693211
          CHANNELS 3 Zrotation Xrotation Yrotation
          JOINT right_humerus
          {
            OFFSET -28.5034 -0.3100689 -2.792744
            CHANNELS 3 Zrotation Xrotation Yrotation
            JOINT right_radius
            {
              OFFSET -25.15693 0.02248979 -1.271978
              CHANNELS 3 Zrotation Xrotation Yrotation
              End Site
              {
                OFFSET -15 0 0
              }
            }
          }
        }
      }
      JOINT left_manubrium
      {
        OFFSET 5.722621 16.35077 3.967754
        CHANNELS 3 Zrotation Xrotation Yrotation
        JOINT left_clavicle
        {
          OFFSET 13.16364 1.694482 -4.693211
          CHANNELS 3 Zrotation Xrotation Yrotation
          JOINT left_humerus
          {
            OFFSET 29.39168 -1.063119 -2.237045
            CHANNELS 3 Zrotation Xrotation Yrotation
            JOINT left_radius
            {
              OFFSET 24.59957 -0.9528479 0.9047498
              CHANNELS 3 Zrotation Xrotation Yrotation
              End Site
              {
                OFFSET 15 -0 -0
              }
            }
          }
        }
      }
    }
  }
}
MOTION
Frames: 15
Frame Time: 0.0416666666667
0 103.5113 0 -0.3106687 -1.074739 -0.1493266 1.80553 -7.17351 11.24332 -0 31.58225 -0 -5.141662 -14.42754 -6.529415 -4.830346 5.673923 -18.20367 -0 12.86964 -0 7.098692 -20.21144 19.44424 -4.664907 -5.982538 2.191315 4.19061 12.14454 -6.936045 0.6576431 23.55028 6.109093 0.8329382 -22.94488 9.44052 8.218278 -18.59735 14.73523 84.6099 36.81737 -19.54759 -0 0 14.10849 -11.70213 4.326425 13.2089 6.069296 -22.03222 -2.477427 -98.29906 32.44228 20.87333 0 0 -11.43759 -7.470465 14.72426 18.00241
0.4790424 103.3601 1.617311 -0.326012 -1.113491 -0.4170863 2.436921 -11.19402 10.2762 -0 38.31862 -0 -5.097182 -13.68958 -7.645882 -5.026606 7.14445 -17.85068 -0 12.10657 -0 6.695073 -20.79449 19.19188 -5.017362 -5.362075 1.798803 4.215823 12.17014 -7.270703 0.5224813 23.41768 6.494431 0.9050037 -23.04851 9.705305 8.300342 -18.7647 14.46854 84.22186 36.50865 -19.34456 -0 0 14.08754 -12.06231 4.628403 13.32786 5.756927 -21.85813 -2.632131 -97.17683 32.06762 20.47684 0 0 -11.15851 -6.374107 14.22175 17.17951
0.8126481 103.2481 3.2956 -0.3383779 -1.142477 -0.6193075 3.238202 -15.39992 9.125508 -0 42.54709 -0 -5.249493 -13.4943 -8.148956 -5.135971 8.691444 -17.45392 -0 11.19509 -0 6.156365 -21.29606 18.88518 -5.549025 -4.362324 1.49181 4.290982 12.05443 -7.674744 0.5209965 23.20755 6.800985 1.056032 -23.16421 9.961534 8.405206 -18.79985 14.22664 84.14989 36.17611 -19.3667 -0 0 13.97815 -12.34859 4.949732 13.42455 5.483097 -22.04572 -2.858083 -95.6521 31.66704 19.65498 0 0 -11.00914 -5.075312 13.64166 16.21699
1.109253 103.3774 5.300835 -0.35296 -1.176265 -0.8563393 4.069686 -19.73354 7.425394 -0 44.00447 -0 -5.296342 -12.66926 -8.424274 -5.195446 10.42975 -16.99647 -0 10.2295 -0 5.450675 -21.71321 18.43211 -5.995398 -3.367137 1.548133 4.588697 11.64505 -7.859777 0.5338657 23.15056 7.080468 1.240104 -23.16781 10.17629 8.269502 -18.75805 13.90865 84.25703 35.84974 -19.60316 -0 0 13.70125 -12.57543 5.29544 13.45295 5.757304 -22.56264 -2.795652 -93.87958 31.16681 18.20774 0 0 -11.8496 -3.487691 13.11184 15.06908
1.378164 103.2854 7.263155 -0.3696507 -1.214704 -1.128228 4.46868 -23.41336 5.644953 -0 41.35363 -0 -5.129574 -11.40515 -8.127085 -5.254811 12.17576 -16.45817 -0 9.360039 -0 4.711691 -22.235 17.82165 -6.432879 -2.020468 1.825048 4.990107 11.13677 -7.899474 0.5940748 22.88683 7.2713 1.405157 -23.3756 10.33146 7.963759 -18.47194 13.68358 84.63111 35.55185 -20.14219 -0 0 13.08869 -12.68337 5.673911 13.34925 6.338613 -23.18334 -2.725487 -92.1017 30.5014 16.39001 0 0 -13.46971 -1.786365 12.51765 13.65309
1.67301 102.8227 9.712389 -0.3495146 -1.157046 -0.7363007 4.574769 -26.69623 4.613225 -0 35.49091 -0 -4.796545 -9.88124 -7.485986 -5.254615 13.96938 -15.95701 -0 8.755232 -0 3.979971 -22.9225 16.93798 -6.697868 -0.7106503 1.97994 5.453011 10.68673 -8.059018 0.7474362 22.47041 7.371057 1.606126 -23.59174 10.43615 7.4378 -17.86566 13.43034 85.34336 35.27303 -21.03793 -0 0 12.14643 -12.68936 6.080073 13.13232 7.003986 -23.79317 -2.715662 -90.58 29.69271 14.43973 0 0 -15.64112 -0.122741 11.84432 12.04663
1.889233 102.1531 12.4233 -0.3112306 -1.049829 -0.003795583 4.781011 -29.33573 3.556137 -0 28.25836 -0 -4.456257 -7.959682 -6.911008 -5.192743 15.7683 -15.4221 -0 8.450023 -0 3.196315 -23.64216 15.80286 -7.129108 0.7378242 2.107632 5.92528 10.09596 -8.315183 1.01853 21.92878 7.389818 1.918085 -23.81338 10.4672 6.940284 -17.57921 13.30911 85.87368 35.02337 -21.55617 -0 0 11.46618 -12.75288 6.466402 12.98011 7.718622 -24.25556 -2.836056 -89.23121 28.81554 12.63469 0 0 -17.86903 1.401813 11.08775 10.41363
2.146344 101.194 15.77787 -0.2700145 -0.9310834 0.806195 4.696136 -31.46838 3.038477 -0 20.8554 -0 -4.347913 -6.268383 -6.201471 -5.147668 17.5897 -14.99016 -0 8.819689 -0 2.222633 -24.20113 14.37942 -7.258571 1.76248 2.11955 6.331069 9.58358 -8.709695 1.098683 21.60193 7.543794 2.207453 -23.83997 10.45307 6.367769 -17.09113 12.98419 86.60155 34.77109 -22.36022 -0 0 10.63365 -12.78486 6.864856 12.79999 8.284809 -24.7045 -2.888266 -88.19697 27.93556 11.02947 0 0 -19.97751 2.781317 10.31736 8.874697
2.347543 100.2652 19.55908 -0.2282795 -0.8062685 1.65553 4.526161 -32.72201 3.006094 -0 15.52884 -0 -4.694452 -5.460376 -5.43415 -4.873998 19.1272 -14.6317 -0 9.991345 -0 0.9051678 -24.19676 12.62346 -7.166219 2.420386 2.077324 6.659464 9.16358 -9.037246 1.026277 21.54459 7.74274 2.457545 -23.65603 10.33617 5.927239 -16.62752 12.62129 87.36299 34.54594 -23.18876 -0 0 9.748776 -12.81034 7.280054 12.60857 8.480457 -25.05304 -2.995151 -87.4332 27.0946 9.913744 0 0 -21.49032 3.931332 9.528819 7.557667
2.61035 99.70885 24.08236 -0.1856884 -0.673413 2.556674 4.746481 -32.49504 3.098502 -0 13.26873 -0 -5.384104 -5.393633 -5.168974 -4.62252 20.448 -13.94085 -0 12.44142 -0 -0.7814486 -23.09001 10.69549 -6.919793 2.776736 1.800679 6.827583 8.6937 -9.466778 0.9474922 21.52732 7.907535 2.711371 -23.47418 10.15806 5.654178 -16.32263 12.34151 87.96696 34.40261 -23.89936 -0 0 8.817129 -12.8447 7.708592 12.40173 8.183159 -25.29725 -3.167296 -86.94019 26.33391 9.394792 0 0 -22.09299 4.793956 8.710415 6.608514
2.735532 99.68979 29.18308 -0.1420525 -0.5304814 3.522532 4.946923 -30.45293 3.353678 -0 14.32499 -0 -6.329114 -5.3675 -5.238792 -4.285357 21.44899 -13.57742 -0 15.92653 -0 -2.726749 -20.37305 8.806252 -6.67911 2.96204 1.294425 6.972281 8.388524 -10.15944 0.7574985 21.34735 8.101791 2.878456 -23.36447 9.930643 5.678737 -15.96821 12.06092 88.82111 34.27789 -24.61363 -0 0 7.904164 -12.8102 8.199249 12.19169 7.497493 -24.92236 -3.651946 -87.08881 25.84295 9.960645 0 0 -21.45303 5.143309 7.946588 6.162002
2.820556 99.97808 35.02086 -0.1022969 -0.3932854 4.446251 5.285357 -28.1232 3.914128 -0 16.0938 -0 -7.351662 -5.600168 -5.363738 -3.919331 21.51641 -13.11054 -0 20.8877 -0 -4.967388 -16.08521 7.023742 -6.109622 2.625638 0.7774065 6.766511 8.116496 -10.75169 0.4620447 21.1182 8.291162 2.953285 -23.1872 9.617848 5.579791 -15.62222 11.76602 89.70845 34.18306 -25.10886 -0 0 7.173652 -12.81431 8.687273 12.08958 6.595307 -24.36499 -4.010287 -87.72168 25.56348 11.24974 0 0 -19.98182 5.084578 7.251795 6.072826
3.224526 100.7963 41.44089 -0.1094132 -0.4170242 4.285753 5.651892 -25.00382 4.55888 -0 17.33332 -0 -8.213067 -6.103892 -5.373634 -4.243114 19.83338 -12.32317 -0 28.53333 -0 -6.9611 -10.31134 5.706605 -5.364653 1.958771 0.6026782 6.412781 8.180262 -10.99803 0.1640892 20.9373 8.45119 3.002171 -23.07128 9.291078 5.318477 -15.48338 11.65802 90.16919 34.24996 -25.06317 -0 0 6.737624 -12.92488 9.173347 12.10083 5.621589 -23.01868 -4.304631 -89.02753 25.30562 13.45736 0 0 -17.97454 4.709574 6.606027 6.325237
3.590888 101.51 47.65075 -0.149854 -0.5520346 3.373825 5.970242 -21.33967 4.959475 -0 17.67779 -0 -8.866468 -7.039508 -5.194994 -4.582394 16.1964 -11.70494 -0 37.59475 -0 -8.366718 -4.37779 5.132599 -4.586811 1.250541 1.120223 5.859914 8.424806 -10.6366 -0.116157 20.91244 8.52478 3.034089 -22.89322 8.889157 5.0859 -15.57239 11.90456 90.29244 34.43681 -24.38094 -0 0 6.682113 -13.16481 9.642872 12.24404 4.630579 -21.68609 -4.387655 -90.35263 24.95642 15.73381 0 0 -16.24912 4.231374 6.055816 6.459513
3.929014 102.3058 53.61874 -0.1981339 -0.7040993 2.341671 6.023082 -16.98437 4.860266 -0 16.84877 -0 -9.289775 -8.459751 -4.885629 -4.491864 9.784511 -10.25961 -0 47.42935 -0 -9.093366 0.002611613 6.223302 -3.890951 0.6593403 1.982688 5.421491 8.539104 -10.10678 -0.3723019 21.01202 8.523866 3.078401 -22.76674 8.419031 5.035967 -15.98794 12.27123 89.78729 34.79779 -23.08311 -0 0 6.813419 -13.57349 10.08949 12.44001 3.729521 -20.84312 -4.399834 -91.20776 24.61537 17.60596 0 0 -14.93919 3.684433 5.604134 6.58684
